<?xml version="1.0" encoding="UTF-8" standalone="no"?>
<!-- Created with Inkscape (http://www.inkscape.org/) -->

<svg
   xmlns:dc="http://purl.org/dc/elements/1.1/"
   xmlns:cc="http://creativecommons.org/ns#"
   xmlns:rdf="http://www.w3.org/1999/02/22-rdf-syntax-ns#"
   xmlns:svg="http://www.w3.org/2000/svg"
   xmlns="http://www.w3.org/2000/svg"
   xmlns:sodipodi="http://sodipodi.sourceforge.net/DTD/sodipodi-0.dtd"
   xmlns:inkscape="http://www.inkscape.org/namespaces/inkscape"
   version="1.1"
   id="svg1795"
   width="242"
   height="362">
  <metadata
     id="metadata1801">
    <rdf:RDF>
      <cc:Work
         rdf:about="">
        <dc:format>image/svg+xml</dc:format>
        <dc:type
           rdf:resource="http://purl.org/dc/dcmitype/StillImage" />
      </cc:Work>
    </rdf:RDF>
  </metadata>
  <defs
     id="defs1799" />
  <sodipodi:namedview
     pagecolor="#ffffff"
     bordercolor="#666666"
     borderopacity="1"
     objecttolerance="10"
     gridtolerance="10"
     guidetolerance="10"
     inkscape:pageopacity="0"
     inkscape:pageshadow="2"
     inkscape:window-width="640"
     inkscape:window-height="480"
     id="namedview1797" />
  <inkscape:clipboard
     style="font-variant-east_asian:normal;opacity:1;vector-effect:none;fill:#ffffff;fill-opacity:1;stroke:#000000;stroke-width:2;stroke-linecap:butt;stroke-linejoin:miter;stroke-miterlimit:4;stroke-dasharray:none;stroke-dashoffset:0;stroke-opacity:1"
     min="3120,1079.9999"
     max="3362,1441.9999" />
  <rect
     style="fill:#ffffff;fill-opacity:1;fill-rule:evenodd;stroke:#000000;stroke-width:2;stroke-miterlimit:4;stroke-dasharray:none"
     id="rect2987-8-5-81-2-1"
     y="1"
     x="1"
     ry="40"
     rx="40"
     height="360"
     width="240" />
  <rect
     style="fill:#000000;fill-opacity:1;fill-rule:evenodd;stroke:none;stroke-width:4"
     id="rect3757-26-33-5-9-9"
     y="21"
     x="21"
     ry="20"
     rx="20"
     height="320"
     width="200" />
  <path
     style="fill:#ffffff;fill-opacity:1;fill-rule:evenodd;stroke:none;stroke-width:4"
     id="path3773-0-4-8-4-60-3-86-5-6"
     d="m 181,80.99999 c -88.36556,0 -160,71.63444 -160,160 0,22.0914 17.9086,40 40,40 88.36556,0 160,-71.63444 160,-160 0,-22.0914 -17.9086,-40 -40,-40 z"
     inkscape:connector-curvature="0" />
  <path
     style="fill:#ffffff;fill-opacity:1;stroke:none;stroke-width:4"
     id="rect3980-7-6-2-9-5-60-5-3-1-5"
     d="m 80.6,30.99995 -19.6,40 V 80.99999 H 85 V 91.00003 H 95 V 80.99999 h 6 V 70.99995 H 95 V 50.99999 H 85 V 70.99995 H 71.4 l 19.6,-40 z"
     inkscape:connector-curvature="0" />
  <path
     style="fill:#ffffff;fill-opacity:1;fill-rule:evenodd;stroke:none;stroke-width:4"
     id="rect5649-4"
     d="M 35,50.99991 V 60.99999 H 25 v 9.99984 H 35 V 80.99991 H 45 V 70.99983 H 55 V 60.99999 H 45 V 50.99991 Z"
     inkscape:connector-curvature="0" />
  <path
     style="fill:#ffffff;fill-opacity:1;stroke:none;stroke-width:4"
     id="rect3980-7-6-2-9-5-60-5-3-1-8-9"
     d="m 161.4,331.00003 19.6,-40 v -10.00004 h -24 v -10.00004 h -10 v 10.00004 h -6 v 10.00004 h 6 v 19.99996 h 10 v -19.99996 h 13.6 l -19.6,40 z"
     inkscape:connector-curvature="0" />
  <path
     style="fill:#ffffff;fill-opacity:1;fill-rule:evenodd;stroke:none;stroke-width:4"
     id="rect5649-1-1"
     d="m 207,311.00007 v -10.00008 h 10 v -9.99984 h -10 v -10.00008 h -10 v 10.00008 h -10 v 9.99984 h 10 v 10.00008 z"
     inkscape:connector-curvature="0" />
  <rect
     style="fill:#ffffff;fill-opacity:1;fill-rule:evenodd;stroke:#000000;stroke-width:2.0396235;stroke-miterlimit:4;stroke-dasharray:none"
     id="rect6095-2-9"
     transform="matrix(1,0,-0.27472185,0.96152374,0,0)"
     y="136.24191"
     x="111.2858"
     ry="9.3911982"
     rx="10"
     height="93.601479"
     width="60" />
  <rect
     style="fill:#ff5555;fill-opacity:1;fill-rule:evenodd;stroke:none;stroke-width:4"
     id="rect6097-5-7"
     transform="matrix(1,0,-0.27472185,0.96152374,0,0)"
     y="146.64218"
     x="121.2858"
     ry="9.3911514"
     rx="9.9999495"
     height="72.801117"
     width="40" />
  <rect
     style="fill:#ffffff;fill-opacity:1;fill-rule:evenodd;stroke:#000000;stroke-width:2.0396235;stroke-miterlimit:4;stroke-dasharray:none"
     id="rect6095-14-0-3"
     transform="matrix(1,0,-0.27472185,0.96152374,0,0)"
     y="105.04144"
     x="142.71431"
     ry="9.3911982"
     rx="10"
     height="93.601479"
     width="60" />
  <rect
     style="fill:#5555ff;fill-opacity:1;fill-rule:evenodd;stroke:none;stroke-width:4"
     id="rect6097-6-3-2"
     transform="matrix(1,0,-0.27472185,0.96152374,0,0)"
     y="115.4417"
     x="152.71431"
     ry="9.3911514"
     rx="9.9999495"
     height="72.801117"
     width="40" />
  <rect
     style="fill:#ffffff;fill-opacity:1;fill-rule:evenodd;stroke:#000000;stroke-width:2.0396235;stroke-miterlimit:4;stroke-dasharray:none"
     id="rect6095-0-3"
     transform="matrix(1,0,-0.27472185,0.96152374,0,0)"
     y="167.44238"
     x="149.85725"
     ry="9.3911982"
     rx="10"
     height="93.601479"
     width="60" />
  <rect
     style="fill:#ffaa00;fill-opacity:1;fill-rule:evenodd;stroke:none;stroke-width:4"
     id="rect6097-7-4"
     transform="matrix(1,0,-0.27472185,0.96152374,0,0)"
     y="177.84265"
     x="159.85725"
     ry="9.3911514"
     rx="9.9999495"
     height="72.801117"
     width="40" />
  <rect
     style="fill:#ffffff;fill-opacity:1;fill-rule:evenodd;stroke:#000000;stroke-width:2.0396235;stroke-miterlimit:4;stroke-dasharray:none"
     id="rect6095-14-8-2"
     transform="matrix(1,0,-0.27472185,0.96152374,0,0)"
     y="136.24196"
     x="181.28578"
     ry="9.3911982"
     rx="10"
     height="93.601479"
     width="60" />
  <rect
     style="fill:#55aa55;fill-opacity:1;fill-rule:evenodd;stroke:none;stroke-width:4"
     id="rect6097-6-7-1"
     transform="matrix(1,0,-0.27472185,0.96152374,0,0)"
     y="146.64223"
     x="191.28578"
     ry="9.3911514"
     rx="9.9999495"
     height="72.801117"
     width="40" />
</svg>
