<?xml version="1.0" encoding="UTF-8" standalone="no"?>
<!-- Created with Inkscape (http://www.inkscape.org/) -->

<svg
   xmlns:dc="http://purl.org/dc/elements/1.1/"
   xmlns:cc="http://creativecommons.org/ns#"
   xmlns:rdf="http://www.w3.org/1999/02/22-rdf-syntax-ns#"
   xmlns:svg="http://www.w3.org/2000/svg"
   xmlns="http://www.w3.org/2000/svg"
   xmlns:sodipodi="http://sodipodi.sourceforge.net/DTD/sodipodi-0.dtd"
   xmlns:inkscape="http://www.inkscape.org/namespaces/inkscape"
   version="1.1"
   id="svg1818"
   width="242"
   height="362">
  <metadata
     id="metadata1824">
    <rdf:RDF>
      <cc:Work
         rdf:about="">
        <dc:format>image/svg+xml</dc:format>
        <dc:type
           rdf:resource="http://purl.org/dc/dcmitype/StillImage" />
      </cc:Work>
    </rdf:RDF>
  </metadata>
  <defs
     id="defs1822" />
  <sodipodi:namedview
     pagecolor="#ffffff"
     bordercolor="#666666"
     borderopacity="1"
     objecttolerance="10"
     gridtolerance="10"
     guidetolerance="10"
     inkscape:pageopacity="0"
     inkscape:pageshadow="2"
     inkscape:window-width="640"
     inkscape:window-height="480"
     id="namedview1820" />
  <inkscape:clipboard
     style="font-variant-east_asian:normal;opacity:1;vector-effect:none;fill:#ffffff;fill-opacity:1;stroke:#000000;stroke-width:2;stroke-linecap:butt;stroke-linejoin:miter;stroke-miterlimit:4;stroke-dasharray:none;stroke-dashoffset:0;stroke-opacity:1"
     min="2880,1440"
     max="3122,1802" />
  <rect
     style="fill:#ffffff;fill-opacity:1;fill-rule:evenodd;stroke:#000000;stroke-width:2;stroke-miterlimit:4;stroke-dasharray:none"
     id="rect2987-8-5-81-7-3-7-1"
     y="1"
     x="1"
     ry="40"
     rx="40"
     height="360"
     width="240" />
  <rect
     style="fill:#5555fd;fill-opacity:1;fill-rule:evenodd;stroke:none;stroke-width:4"
     id="rect3757-26-33-5-2-2-2-8"
     y="21"
     x="21"
     ry="20"
     rx="20"
     height="320"
     width="200" />
  <path
     style="fill:#ffffff;fill-opacity:1;fill-rule:evenodd;stroke:none;stroke-width:4"
     id="path3773-0-4-8-4-60-3-86-29-6-7-3"
     d="m 181,80.99991 c -88.36556,0 -160,71.63456 -160,160.00016 0,22.0912 17.9086,40 40,40 88.36556,0 160,-71.6344 160,-160.00016 0,-22.0914 -17.9086,-40 -40,-40 z"
     inkscape:connector-curvature="0" />
  <rect
     style="fill:#ffffff;fill-opacity:1;fill-rule:evenodd;stroke:#000000;stroke-width:2.0396235;stroke-miterlimit:4;stroke-dasharray:none"
     id="rect6095-5-8-2-7"
     transform="matrix(1,0,-0.27472185,0.96152374,0,0)"
     y="157.04231"
     x="127.00016"
     ry="9.3911982"
     rx="10"
     height="93.601479"
     width="60" />
  <rect
     style="fill:#5555fd;fill-opacity:1;fill-rule:evenodd;stroke:none;stroke-width:4"
     id="rect6097-3-2-6-5"
     transform="matrix(1,0,-0.27472185,0.96152374,0,0)"
     y="167.4427"
     x="137.00017"
     ry="9.3911514"
     rx="9.9999495"
     height="72.801117"
     width="40" />
  <rect
     style="fill:#ffffff;fill-opacity:1;fill-rule:evenodd;stroke:#000000;stroke-width:2.0396235;stroke-miterlimit:4;stroke-dasharray:none"
     id="rect6095-1-66-4-8"
     transform="matrix(1,0,-0.27472185,0.96152374,0,0)"
     y="125.84164"
     x="158.42888"
     ry="9.3911982"
     rx="10"
     height="93.601479"
     width="60" />
  <rect
     style="fill:#5555fd;fill-opacity:1;fill-rule:evenodd;stroke:none;stroke-width:4"
     id="rect6097-8-3-7-1"
     transform="matrix(1,0,-0.27472185,0.96152374,0,0)"
     y="136.24202"
     x="168.42888"
     ry="9.3911514"
     rx="9.9999495"
     height="72.801117"
     width="40" />
  <path
     style="fill:#ffffff;fill-opacity:1;fill-rule:evenodd;stroke:none;stroke-width:4"
     id="rect5649-4-2-7-7"
     d="M 35,50.99983 V 60.99991 H 25 v 9.99984 H 35 V 80.99983 H 45 V 70.99975 H 55 V 60.99991 H 45 V 50.99983 Z"
     inkscape:connector-curvature="0" />
  <path
     style="fill:#ffffff;fill-opacity:1;stroke:none;stroke-width:4"
     id="rect3163-52-9-8-1-1-2-7-3-6-0-9-5-9-2-0"
     d="m 81,30.99991 c -11.08,0 -20,8.92 -20,20 v 2 h 10 v -2 c 0,-5.54 4.46,-10 10,-10 5.54,0 10,4.46 10,10 0,2.255 -1.87104,6.68028 -3.82492,8.21804 C 76.56548,67.56783 76.67748,66.18883 61,76.99991 v 14 h 20 20 v -10 -4 H 91 v 4 H 81 73 C 85.38012,72.28243 86.2854,72.49371 95.98616,63.81243 99.09432,61.03091 101,55.51031 101,50.99991 c 0,-11.08 -8.92,-20 -20,-20 z"
     inkscape:connector-curvature="0" />
  <path
     style="fill:#ffffff;fill-opacity:1;fill-rule:evenodd;stroke:none;stroke-width:4"
     id="rect5649-4-2-7-0-4"
     d="m 207,311.00047 v -10 h 10 v -9.9996 h -10 v -10.0004 h -10 v 10.0004 h -10 v 9.9996 h 10 v 10 z"
     inkscape:connector-curvature="0" />
  <path
     style="fill:#ffffff;fill-opacity:1;stroke:none;stroke-width:4"
     id="rect3163-52-9-8-1-1-2-7-3-6-0-9-5-9-2-2-88"
     d="m 161,331.00047 c 11.08,0 20,-8.92 20,-20 v -2 h -10 v 2 c 0,5.54 -4.46,10 -10,10 -5.54,0 -10,-4.46 -10,-10 0,-2.2548 1.87104,-6.68 3.82492,-8.218 10.6096,-8.3496 10.4976,-6.9708 26.17508,-17.782 v -14 h -20 -20 v 10 4 h 10 v -4 h 10 8 c -12.38012,8.7176 -13.2854,8.5064 -22.98616,17.1876 -3.10816,2.7816 -5.01384,8.302 -5.01384,12.8124 0,11.08 8.92,20 20,20 z"
     inkscape:connector-curvature="0" />
</svg>
